<svg width="18" height="19" viewBox="0 0 18 19" fill="none" xmlns="http://www.w3.org/2000/svg">
<path d="M4.875 6.91943H1.875C1.66789 6.91943 1.5 7.08733 1.5 7.29443V17.0444C1.5 17.2515 1.66789 17.4194 1.875 17.4194H4.875C5.08211 17.4194 5.25 17.2515 5.25 17.0444V7.29443C5.25 7.08733 5.08211 6.91943 4.875 6.91943Z" fill="white"/>
<path d="M3.36 5.41943C4.38725 5.41943 5.22 4.57997 5.22 3.54443C5.22 2.5089 4.38725 1.66943 3.36 1.66943C2.33275 1.66943 1.5 2.5089 1.5 3.54443C1.5 4.57997 2.33275 5.41943 3.36 5.41943Z" fill="white"/>
<path d="M13.875 17.4196H16.125C16.2245 17.4196 16.3198 17.3801 16.3902 17.3098C16.4605 17.2394 16.5 17.144 16.5 17.0446V10.7446C16.5 7.91709 14.9025 6.54459 12.6675 6.54459C12.2267 6.52847 11.7873 6.6049 11.3778 6.76895C10.9683 6.93301 10.5978 7.18105 10.29 7.49709C10.2489 7.54458 10.1942 7.57835 10.1334 7.59384C10.0725 7.60934 10.0083 7.60582 9.94953 7.58377C9.89072 7.56171 9.84007 7.52218 9.8044 7.47048C9.76873 7.41878 9.74974 7.3574 9.75 7.29459C9.75 7.19513 9.71049 7.09975 9.64017 7.02942C9.56984 6.9591 9.47446 6.91959 9.375 6.91959H7.125C7.02554 6.91959 6.93016 6.9591 6.85983 7.02942C6.78951 7.09975 6.75 7.19513 6.75 7.29459V17.0446C6.75 17.144 6.78951 17.2394 6.85983 17.3098C6.93016 17.3801 7.02554 17.4196 7.125 17.4196H9.375C9.47446 17.4196 9.56984 17.3801 9.64017 17.3098C9.71049 17.2394 9.75 17.144 9.75 17.0446V11.4196C9.75 10.9223 9.94754 10.4454 10.2992 10.0938C10.6508 9.74213 11.1277 9.54459 11.625 9.54459C12.1223 9.54459 12.5992 9.74213 12.9508 10.0938C13.3025 10.4454 13.5 10.9223 13.5 11.4196V17.0446C13.5 17.144 13.5395 17.2394 13.6098 17.3098C13.6802 17.3801 13.7755 17.4196 13.875 17.4196Z" fill="white"/>
</svg>
