<svg width="136" height="28" viewBox="0 0 136 28" fill="none" xmlns="http://www.w3.org/2000/svg">
<path d="M12.73 2.09518C13.0872 1.37627 14.1128 1.37627 14.47 2.09518L17.3872 7.96651C17.5286 8.2512 17.8004 8.44867 18.1149 8.49522L24.6003 9.45529C25.3944 9.57285 25.7113 10.5482 25.138 11.1101L20.4555 15.6988C20.2284 15.9213 20.1246 16.2408 20.1775 16.5543L21.2685 23.019C21.4021 23.8105 20.5724 24.4133 19.8609 24.0417L14.0497 21.0064C13.768 20.8592 13.432 20.8592 13.1503 21.0064L7.33912 24.0417C6.62757 24.4133 5.7979 23.8105 5.93149 23.019L7.02251 16.5543C7.07541 16.2408 6.97159 15.9213 6.74455 15.6988L2.06205 11.1101C1.4887 10.5482 1.80561 9.57285 2.59971 9.45529L9.08514 8.49522C9.39961 8.44867 9.6714 8.2512 9.81285 7.96651L12.73 2.09518Z" fill="#FEA500"/>
<path d="M39.93 2.09518C40.2872 1.37627 41.3127 1.37627 41.6699 2.09518L44.5871 7.96651C44.7286 8.2512 45.0003 8.44867 45.3148 8.49522L51.8002 9.45529C52.5943 9.57285 52.9113 10.5482 52.3379 11.1101L47.6554 15.6988C47.4284 15.9213 47.3245 16.2408 47.3774 16.5543L48.4685 23.019C48.6021 23.8105 47.7724 24.4133 47.0608 24.0417L41.2497 21.0064C40.9679 20.8592 40.632 20.8592 40.3502 21.0064L34.5391 24.0417C33.8275 24.4133 32.9978 23.8105 33.1314 23.019L34.2225 16.5543C34.2754 16.2408 34.1715 15.9213 33.9445 15.6988L29.262 11.1101C28.6887 10.5482 29.0056 9.57285 29.7997 9.45529L36.2851 8.49522C36.5996 8.44867 36.8713 8.2512 37.0128 7.96651L39.93 2.09518Z" fill="#FEA500"/>
<path d="M67.1299 2.09518C67.4871 1.37627 68.5127 1.37627 68.8699 2.09518L71.7871 7.96651C71.9285 8.2512 72.2003 8.44867 72.5148 8.49522L79.0002 9.45529C79.7943 9.57285 80.1112 10.5482 79.5379 11.1101L74.8554 15.6988C74.6283 15.9213 74.5245 16.2408 74.5774 16.5543L75.6684 23.019C75.802 23.8105 74.9723 24.4133 74.2608 24.0417L68.4496 21.0064C68.1679 20.8592 67.8319 20.8592 67.5502 21.0064L61.739 24.0417C61.0275 24.4133 60.1978 23.8105 60.3314 23.019L61.4224 16.5543C61.4753 16.2408 61.3715 15.9213 61.1445 15.6988L56.4619 11.1101C55.8886 10.5482 56.2055 9.57285 56.9996 9.45529L63.485 8.49522C63.7995 8.44867 64.0713 8.2512 64.2127 7.96651L67.1299 2.09518Z" fill="#FEA500"/>
<path d="M94.3301 2.09518C94.6873 1.37627 95.7129 1.37627 96.0701 2.09518L98.9873 7.96651C99.1287 8.2512 99.4005 8.44867 99.715 8.49522L106.2 9.45529C106.994 9.57285 107.311 10.5482 106.738 11.1101L102.056 15.6988C101.829 15.9213 101.725 16.2408 101.778 16.5543L102.869 23.019C103.002 23.8105 102.173 24.4133 101.461 24.0417L95.6498 21.0064C95.3681 20.8592 95.0321 20.8592 94.7503 21.0064L88.9392 24.0417C88.2277 24.4133 87.398 23.8105 87.5316 23.019L88.6226 16.5543C88.6755 16.2408 88.5717 15.9213 88.3446 15.6988L83.6621 11.1101C83.0888 10.5482 83.4057 9.57285 84.1998 9.45529L90.6852 8.49522C90.9997 8.44867 91.2715 8.2512 91.4129 7.96651L94.3301 2.09518Z" fill="#FEA500"/>
<path d="M121.53 2.09518C121.887 1.37627 122.913 1.37627 123.27 2.09518L126.187 7.96651C126.329 8.2512 126.6 8.44867 126.915 8.49522L133.4 9.45529C134.194 9.57285 134.511 10.5482 133.938 11.1101L129.256 15.6988C129.028 15.9213 128.925 16.2408 128.978 16.5543L130.069 23.019C130.202 23.8105 129.372 24.4133 128.661 24.0417L122.85 21.0064C122.568 20.8592 122.232 20.8592 121.95 21.0064L116.139 24.0417C115.428 24.4133 114.598 23.8105 114.732 23.019L115.823 16.5543C115.875 16.2408 115.772 15.9213 115.545 15.6988L110.862 11.1101C110.289 10.5482 110.606 9.57285 111.4 9.45529L117.885 8.49522C118.2 8.44867 118.471 8.2512 118.613 7.96651L121.53 2.09518Z" fill="#FEA500"/>
</svg>
