<svg width="90" height="17" viewBox="0 0 90 17" fill="none" xmlns="http://www.w3.org/2000/svg">
<path d="M7.43044 1.78425C7.67269 1.2018 8.4978 1.2018 8.74006 1.78425L10.1699 5.222C10.272 5.46755 10.5029 5.63532 10.768 5.65657L14.4794 5.95411C15.1082 6.00452 15.3632 6.78925 14.8841 7.19964L12.0564 9.62182C11.8545 9.79483 11.7662 10.0663 11.828 10.325L12.6918 13.9466C12.8382 14.5602 12.1707 15.0452 11.6323 14.7164L8.45492 12.7756C8.22796 12.637 7.94253 12.637 7.71558 12.7756L4.53815 14.7164C3.99981 15.0452 3.33228 14.5602 3.47865 13.9466L4.34254 10.325C4.40425 10.0663 4.31604 9.79483 4.11407 9.62182L1.28642 7.19963C0.807338 6.78925 1.06231 6.00452 1.69112 5.95411L5.40246 5.65657C5.66755 5.63532 5.89847 5.46755 6.0006 5.222L7.43044 1.78425Z" fill="#2679F3"/>
<path d="M25.8621 1.78425C26.1043 1.2018 26.9294 1.2018 27.1717 1.78425L28.6015 5.222C28.7037 5.46755 28.9346 5.63532 29.1997 5.65657L32.911 5.95411C33.5398 6.00452 33.7948 6.78925 33.3157 7.19964L30.4881 9.62182C30.2861 9.79483 30.1979 10.0663 30.2596 10.325L31.1235 13.9466C31.2699 14.5602 30.6023 15.0452 30.064 14.7164L26.8866 12.7756C26.6596 12.637 26.3742 12.637 26.1472 12.7756L22.9698 14.7164C22.4314 15.0452 21.7639 14.5602 21.9103 13.9466L22.7742 10.325C22.8359 10.0663 22.7477 9.79483 22.5457 9.62182L19.7181 7.19963C19.239 6.78925 19.494 6.00452 20.1228 5.95411L23.8341 5.65657C24.0992 5.63532 24.3301 5.46755 24.4322 5.222L25.8621 1.78425Z" fill="#2679F3"/>
<path d="M44.2937 1.78425C44.536 1.2018 45.3611 1.2018 45.6033 1.78425L47.0332 5.222C47.1353 5.46755 47.3662 5.63532 47.6313 5.65657L51.3427 5.95411C51.9715 6.00452 52.2264 6.78925 51.7474 7.19964L48.9197 9.62182C48.7177 9.79483 48.6295 10.0663 48.6912 10.325L49.5551 13.9466C49.7015 14.5602 49.034 15.0452 48.4956 14.7164L45.3182 12.7756C45.0912 12.637 44.8058 12.637 44.5789 12.7756L41.4014 14.7164C40.8631 15.0452 40.1956 14.5602 40.3419 13.9466L41.2058 10.325C41.2675 10.0663 41.1793 9.79483 40.9774 9.62182L38.1497 7.19963C37.6706 6.78925 37.9256 6.00452 38.5544 5.95411L42.2657 5.65657C42.5308 5.63532 42.7617 5.46755 42.8639 5.222L44.2937 1.78425Z" fill="#2679F3"/>
<path d="M62.7258 1.78425C62.9681 1.2018 63.7932 1.2018 64.0355 1.78425L65.4653 5.222C65.5674 5.46755 65.7984 5.63532 66.0634 5.65657L69.7748 5.95411C70.4036 6.00452 70.6586 6.78925 70.1795 7.19964L67.3518 9.62182C67.1499 9.79483 67.0617 10.0663 67.1234 10.325L67.9873 13.9466C68.1336 14.5602 67.4661 15.0452 66.9278 14.7164L63.7503 12.7756C63.5234 12.637 63.2379 12.637 63.011 12.7756L59.8336 14.7164C59.2952 15.0452 58.6277 14.5602 58.7741 13.9466L59.638 10.325C59.6997 10.0663 59.6115 9.79483 59.4095 9.62182L56.5818 7.19963C56.1027 6.78925 56.3577 6.00452 56.9865 5.95411L60.6979 5.65657C60.963 5.63532 61.1939 5.46755 61.296 5.222L62.7258 1.78425Z" fill="#2679F3"/>
<path d="M81.1575 1.78425C81.3997 1.2018 82.2249 1.2018 82.4671 1.78425L83.8969 5.222C83.9991 5.46755 84.23 5.63532 84.4951 5.65657L88.2064 5.95411C88.8352 6.00452 89.0902 6.78925 88.6111 7.19964L85.7835 9.62182C85.5815 9.79483 85.4933 10.0663 85.555 10.325L86.4189 13.9466C86.5653 14.5602 85.8977 15.0452 85.3594 14.7164L82.182 12.7756C81.955 12.637 81.6696 12.637 81.4426 12.7756L78.2652 14.7164C77.7269 15.0452 77.0593 14.5602 77.2057 13.9466L78.0696 10.325C78.1313 10.0663 78.0431 9.79483 77.8411 9.62182L75.0135 7.19963C74.5344 6.78925 74.7894 6.00452 75.4182 5.95411L79.1295 5.65657C79.3946 5.63532 79.6255 5.46755 79.7276 5.222L81.1575 1.78425Z" fill="#2679F3"/>
</svg>
