<svg width="18" height="19" viewBox="0 0 18 19" fill="none" xmlns="http://www.w3.org/2000/svg">
<g clip-path="url(#clip0_6_9721)">
<path d="M13.605 5.92193C13.5703 5.8824 13.5276 5.85062 13.4798 5.82866C13.432 5.80669 13.3801 5.79503 13.3275 5.79443H10.5V4.73693C10.5 4.52693 10.545 4.28693 10.8825 4.28693H13.1325C13.1819 4.28904 13.2311 4.28002 13.2765 4.26055C13.322 4.24108 13.3625 4.21165 13.395 4.17443C13.4611 4.10586 13.4987 4.01468 13.5 3.91943V0.919434C13.5 0.819977 13.4605 0.724595 13.3902 0.654269C13.3198 0.583942 13.2245 0.544434 13.125 0.544434H9.8775C6.2775 0.544434 6 3.61943 6 4.55693V5.79443H4.125C4.02554 5.79443 3.93016 5.83394 3.85984 5.90427C3.78951 5.97459 3.75 6.06998 3.75 6.16943V9.16943C3.75 9.26889 3.78951 9.36427 3.85984 9.4346C3.93016 9.50492 4.02554 9.54443 4.125 9.54443H6V18.1694C6 18.2689 6.03951 18.3643 6.10983 18.4346C6.18016 18.5049 6.27554 18.5444 6.375 18.5444H10.125C10.2245 18.5444 10.3198 18.5049 10.3902 18.4346C10.4605 18.3643 10.5 18.2689 10.5 18.1694V9.54443H13.0125C13.1058 9.5449 13.1959 9.51058 13.2652 9.44817C13.3346 9.38577 13.3782 9.29976 13.3875 9.20693L13.7025 6.20693C13.7068 6.15527 13.7004 6.10327 13.6836 6.05421C13.6668 6.00516 13.6401 5.96012 13.605 5.92193Z" fill="white"/>
</g>
<defs>
<clipPath id="clip0_6_9721">
<rect width="18" height="18" fill="white" transform="translate(0 0.544434)"/>
</clipPath>
</defs>
</svg>
