<svg width="24" height="25" viewBox="0 0 24 25" fill="none" xmlns="http://www.w3.org/2000/svg">
<path d="M20.9727 7.26184C20.5083 7.88136 19.9469 8.42177 19.3102 8.8622C19.3102 9.02403 19.3102 9.18586 19.3102 9.35669C19.3153 12.2955 18.1414 15.1135 16.0517 17.1789C13.9619 19.2443 11.1311 20.3843 8.19393 20.3433C6.49587 20.349 4.81955 19.9613 3.2963 19.2105C3.21416 19.1746 3.16119 19.0934 3.1615 19.0037V18.9048C3.1615 18.7757 3.26611 18.6711 3.39515 18.6711C5.0643 18.616 6.6739 18.0373 7.99622 17.0168C6.48541 16.9863 5.12607 16.0913 4.50048 14.7151C4.46889 14.64 4.47872 14.5537 4.52645 14.4876C4.57417 14.4215 4.65288 14.3851 4.73413 14.3915C5.1933 14.4376 5.65706 14.3949 6.10008 14.2656C4.43227 13.9194 3.17909 12.5348 2.99974 10.8401C2.99337 10.7588 3.0298 10.6801 3.09588 10.6323C3.16195 10.5846 3.24812 10.5747 3.32326 10.6064C3.77082 10.8039 4.25397 10.9079 4.74312 10.912C3.28172 9.9529 2.65049 8.12849 3.20643 6.47066C3.26382 6.30957 3.40169 6.19056 3.56938 6.15738C3.73706 6.12419 3.90984 6.18172 4.0242 6.30883C5.99627 8.40769 8.70592 9.6584 11.5818 9.79723C11.5082 9.50329 11.472 9.2012 11.474 8.89816C11.5009 7.30916 12.4841 5.89365 13.9633 5.31431C15.4424 4.73498 17.1248 5.10647 18.2229 6.25488C18.9713 6.11229 19.6949 5.86089 20.3706 5.50865C20.4201 5.47775 20.4829 5.47775 20.5324 5.50865C20.5633 5.55817 20.5633 5.62096 20.5324 5.67048C20.2051 6.41996 19.6522 7.04856 18.9508 7.46863C19.565 7.3974 20.1684 7.25251 20.7481 7.03708C20.7969 7.00386 20.861 7.00386 20.9098 7.03708C20.9507 7.05578 20.9813 7.09155 20.9934 7.13486C21.0055 7.17817 20.9979 7.22462 20.9727 7.26184Z" fill="white"/>
</svg>
